<?xml version="1.0" encoding="UTF-8" standalone="no"?>
<!-- Created with Inkscape (http://www.inkscape.org/) -->

<svg
   xmlns:dc="http://purl.org/dc/elements/1.1/"
   xmlns:cc="http://creativecommons.org/ns#"
   xmlns:rdf="http://www.w3.org/1999/02/22-rdf-syntax-ns#"
   xmlns:svg="http://www.w3.org/2000/svg"
   xmlns="http://www.w3.org/2000/svg"
   xmlns:sodipodi="http://sodipodi.sourceforge.net/DTD/sodipodi-0.dtd"
   xmlns:inkscape="http://www.inkscape.org/namespaces/inkscape"
   width="250"
   height="250"
   id="svg2"
   sodipodi:version="0.32"
   inkscape:version="0.91 r13725"
   sodipodi:docname="mIRC.svg"
   version="1.1">
  <defs
     id="defs4" />
  <sodipodi:namedview
     id="base"
     pagecolor="#ffffff"
     bordercolor="#666666"
     borderopacity="1.0"
     inkscape:pageopacity="0.0"
     inkscape:pageshadow="2"
     inkscape:zoom="1"
     inkscape:cx="363.75262"
     inkscape:cy="41.47755"
     inkscape:document-units="px"
     inkscape:current-layer="layer1"
     inkscape:showpageshadow="false"
     showborder="true"
     inkscape:window-width="1152"
     inkscape:window-height="817"
     inkscape:window-x="0"
     inkscape:window-y="440"
     showgrid="false"
     units="px"
     inkscape:window-maximized="0" />
  <metadata
     id="metadata7">
    <rdf:RDF>
      <cc:Work
         rdf:about="">
        <dc:format>image/svg+xml</dc:format>
        <dc:type
           rdf:resource="http://purl.org/dc/dcmitype/StillImage" />
        <dc:title>mIRC logo</dc:title>
        <dc:date>November 3rd, 2005</dc:date>
        <dc:creator>
          <cc:Agent>
            <dc:title>Lucas V. Barbosa (SVG version)</dc:title>
          </cc:Agent>
        </dc:creator>
        <dc:rights>
          <cc:Agent>
            <dc:title>Khaled Mardam-Bey (original)</dc:title>
          </cc:Agent>
        </dc:rights>
        <dc:subject>
          <rdf:Bag>
            <rdf:li>mIRC</rdf:li>
            <rdf:li>logo</rdf:li>
            <rdf:li>icon</rdf:li>
            <rdf:li>IRC client</rdf:li>
          </rdf:Bag>
        </dc:subject>
        <dc:description>SVG version of mIRC icon for Wikipedia
http://en.wikipedia.org/</dc:description>
        <cc:license
           rdf:resource="http://creativecommons.org/licenses/GPL/2.0/" />
      </cc:Work>
      <cc:License
         rdf:about="http://creativecommons.org/licenses/GPL/2.0/">
        <cc:permits
           rdf:resource="http://web.resource.org/cc/Reproduction" />
        <cc:permits
           rdf:resource="http://web.resource.org/cc/Distribution" />
        <cc:requires
           rdf:resource="http://web.resource.org/cc/Notice" />
        <cc:permits
           rdf:resource="http://web.resource.org/cc/DerivativeWorks" />
        <cc:requires
           rdf:resource="http://web.resource.org/cc/ShareAlike" />
        <cc:requires
           rdf:resource="http://web.resource.org/cc/SourceCode" />
      </cc:License>
    </rdf:RDF>
  </metadata>
  <g
     inkscape:label="Layer 1"
     inkscape:groupmode="layer"
     id="layer1"
     transform="translate(0,125)">
    <path
       style="fill:#043292;fill-opacity:1;stroke:#000000;stroke-width:6.19458008;stroke-miterlimit:4;stroke-dasharray:none;stroke-opacity:1"
       d="m 24.466525,-117.96481 0,118.27778773 52.331305,0 0,-63.30087573 c 2.063469,-1.028635 5.358067,-1.942181 11.356732,-1.742226 10.324304,0.344144 8.904709,5.807422 8.904711,5.807419 l 0,59.8809516 52.653937,0 0,-65.6883706 c 1.91157,-0.338891 4.21532,-0.55423 7.29154,-0.451689 10.3243,0.344144 8.90472,5.871949 8.90471,5.871947 l 0,59.88095128 52.65394,0 0,-69.17282328 c 0,0 2.66572,-42.605012 -35.10263,-48.524222 -34.05857,-5.3378 -41.2972,16.13172 -41.2972,16.13173 l 0,2.064855 c -5.07928,-8.263925 -13.51642,-15.609555 -27.55298,-17.809425 -23.043939,-3.61153 -33.25927,4.91298 -37.81276,10.90505 l 0,-12.13106 -52.331305,0 z"
       id="rect2123"
       inkscape:connector-curvature="0" />
    <g
       id="g2878"
       transform="matrix(2.0648604,0,0,2.0648604,81.568257,-139.03726)">
      <path
         sodipodi:nodetypes="cccccccc"
         id="path2869"
         d="m 76.19815,113.33584 c -6.55781,9.12445 -18.5803,14.10967 -29.631522,11.49633 C 34.531767,122.26226 25.264435,111.56359 23.137467,99.627108 20.508191,86.76195 25.885319,72.374618 37.051816,65.184937 c 9.245036,-6.213415 22.136404,-6.213066 31.343234,0.07838 5.28468,3.481794 9.46889,8.585699 11.81014,14.469216 -7.01284,19.589155 -25.859013,17.178308 -34.371857,10.434129 5.5105,25.778618 20.187657,14.640558 30.364817,23.169178 z"
         style="fill:#fff508;fill-opacity:1;stroke:#000000;stroke-width:3;stroke-miterlimit:4;stroke-dasharray:none;stroke-opacity:1"
         inkscape:connector-curvature="0" />
      <ellipse
         transform="matrix(1.126669,-0.689494,0.669083,1.217169,9.677508,-19.1388)"
         id="path2874"
         style="fill:#ffff08;fill-opacity:1;stroke:#000000;stroke-width:2.2160449;stroke-miterlimit:4;stroke-dasharray:none;stroke-opacity:1"
         cx="-4.4166665"
         cy="79.916664"
         rx="0.91666669"
         ry="3.4166667" />
      <ellipse
         transform="matrix(1.126669,-0.689494,0.669083,1.217169,17.19665,-23.1654)"
         id="path2876"
         style="fill:#ffff08;fill-opacity:1;stroke:#000000;stroke-width:2.2160449;stroke-miterlimit:4;stroke-dasharray:none;stroke-opacity:1"
         cx="-4.4166665"
         cy="79.916664"
         rx="0.91666669"
         ry="3.4166667" />
    </g>
    <g
       id="g2862"
       transform="matrix(2.0648604,0,0,2.0648604,-16.120887,-139.51679)">
      <rect
         y="63.717358"
         x="11.08777"
         height="22.398653"
         width="29.991146"
         id="rect2105"
         style="fill:#e10000;fill-opacity:1;stroke:#000000;stroke-width:3.00000095;stroke-miterlimit:4;stroke-dasharray:none;stroke-opacity:1" />
      <rect
         y="86.87294"
         x="11.004427"
         height="35.920876"
         width="29.991146"
         id="rect2109"
         style="fill:#e10000;fill-opacity:1;stroke:#000000;stroke-width:3.00000143;stroke-miterlimit:4;stroke-dasharray:none;stroke-opacity:1" />
      <path
         id="rect2111"
         d="m 41.468759,63.53125 0,26.9375 0.1875,0 0,32.375 26.6875,0 0,-32.375 17,0 0,-26.9375 -43.875,0 z"
         style="fill:#e10000;fill-opacity:1;stroke:#000000;stroke-width:3;stroke-miterlimit:4;stroke-dasharray:none;stroke-opacity:1"
         inkscape:connector-curvature="0" />
    </g>
  </g>
</svg>
