<?xml version="1.0" encoding="iso-8859-1"?>
<!-- Generator: Adobe Illustrator 18.0.0, SVG Export Plug-In . SVG Version: 6.00 Build 0)  -->
<!DOCTYPE svg PUBLIC "-//W3C//DTD SVG 1.1//EN" "http://www.w3.org/Graphics/SVG/1.1/DTD/svg11.dtd">
<svg version="1.1" id="Capa_1" xmlns="http://www.w3.org/2000/svg" xmlns:xlink="http://www.w3.org/1999/xlink" x="0px" y="0px"
	 viewBox="0 0 477.377 477.377" style="enable-background:new 0 0 477.377 477.377;" xml:space="preserve">
<g>
	<path d="M226.225,190.348c3.533,0,6.395-2.862,6.395-6.396v-9.36c0-0.985-0.423-1.915-1.174-2.558
		c-0.735-0.641-1.704-0.939-2.675-0.812c-6.613,0.891-20.612,4.199-32.702,16.585c-0.421,0.431-0.546,1.071-0.311,1.627
		c0.249,0.554,0.781,0.915,1.377,0.915H226.225z"/>
	<path d="M251.153,190.348h29.09c0.594,0,1.126-0.36,1.375-0.915c0.235-0.556,0.111-1.196-0.313-1.627
		c-12.089-12.386-26.086-15.694-32.701-16.585c-0.97-0.126-1.939,0.171-2.691,0.812c-0.732,0.642-1.156,1.573-1.156,2.558v9.36
		C244.757,187.486,247.619,190.348,251.153,190.348z"/>
	<path d="M395.786,276.271c-3.831-7.78-10.446-14.051-19.173-16.648l-44.572-13.294l-15.827-4.714l-17.423-5.2
		c10.854-12.285,19.924-26.721,26.649-41.156c13.357-2.612,26.009-15.036,31.92-31.998c7.445-21.418,2.064-42.345-11.995-50.469
		l-8.835-58.686c-0.424-2.902-1.236-5.663-2.051-8.414C326.645,18.987,302.2,0,273.69,0h-2.941h-64.137h-2.939
		c-28.495,0-52.924,18.971-60.79,45.652c-0.813,2.769-1.611,5.536-2.05,8.454l-8.836,58.702
		c-6.553,3.816-11.541,10.454-13.842,19.158c-2.501,9.532-1.86,20.651,1.877,31.303c5.85,16.796,18.299,29.144,31.843,31.911
		c6.725,14.452,15.827,28.934,26.696,41.235l-17.439,5.207l-15.201,4.529l-45.166,13.473c-8.727,2.596-15.343,8.868-19.175,16.648
		c-2.11,4.286-3.612,8.891-3.612,13.904v2.471v24.022c0,2.94,0.281,5.818,0.453,8.719c0.281,5.536,0.861,10.994,1.705,16.375
		c1.767,11.354,4.724,22.309,8.743,32.74c2.158,5.615,4.581,11.089,7.334,16.375c6.209,11.886,13.904,22.833,22.756,32.74
		c5.208,5.826,10.729,11.363,16.718,16.375c27.9,23.318,63.793,37.385,103.002,37.385c39.207,0,75.1-14.067,103-37.385
		c5.99-5.012,11.512-10.549,16.72-16.375c8.852-9.907,16.547-20.854,22.756-32.74c2.751-5.287,5.176-10.76,7.334-16.375
		c4.018-10.432,6.975-21.386,8.742-32.74c0.845-5.381,1.423-10.839,1.705-16.375c0.172-2.9,0.453-5.778,0.453-8.719v-24.022v-2.471
		C399.399,285.162,397.898,280.556,395.786,276.271z M164.917,184.311c-1.297-2.995-4.582-4.918-7.85-4.918
		c-6.819,0-16.719-7.538-21.598-21.513c-2.612-7.498-3.145-15.419-1.486-21.73c0.814-3.049,2.861-8.406,7.633-10.064
		c0.483-0.173,1.532-0.273,2.032-0.32c4.035-0.398,7.177-3.699,7.366-7.757c0.155-3.292,0.537-6.463,1.33-9.586
		c5.036-19.828,33.874-82.178,71.58-60.673c0,0,0.375,0.266,1.08,0.695c8.382,5.138,18.939,5.146,27.32,0.016
		c0.722-0.437,1.112-0.711,1.112-0.711c37.659-21.473,66.462,40.707,71.549,60.611c0.804,3.146,1.19,6.334,1.346,9.649
		c0.188,4.058,3.347,7.367,7.383,7.757c0.797,0.079,1.579,0.164,2.032,0.32c7.242,2.534,11.558,16.218,6.162,31.794
		c-4.88,13.975-14.795,21.513-21.833,21.513c-0.063,0-0.108,0-0.157,0c-3.236,0-6.192,1.923-7.489,4.918
		c-14.249,32.68-41.116,67.593-73.757,67.593C206.017,251.904,179.166,216.99,164.917,184.311z M173.347,255.064l18.768-5.599
		c13.622,11.276,29.23,18.814,46.558,18.814c17.328,0,32.952-7.539,46.574-18.822l18.768,5.599l23.1,6.89
		c-2.283,5.075-5.332,9.83-8.898,14.325c-4.785,6.053-10.37,11.667-17.079,16.375c-16.53,11.596-38.271,18.657-62.135,18.657
		c-23.85,0-45.59-7.061-62.136-18.657c-6.725-4.708-12.293-10.322-17.095-16.375c-3.597-4.551-6.661-9.345-8.96-14.482
		L173.347,255.064z M94.353,290.174c0-6.154,3.644-11.393,9.101-13.904h36.473c3.425,5.834,7.491,11.331,12.261,16.375H94.353
		V290.174z M313.304,439.992H164.073c-7.851-4.77-15.186-10.245-21.974-16.375h193.178
		C328.49,429.747,321.155,435.222,313.304,439.992z M362.256,390.877H115.122c-3.175-5.27-6.1-10.698-8.586-16.375h264.305
		C368.355,380.179,365.429,385.606,362.256,390.877z M380.695,341.761H96.683c-0.938-5.365-1.549-10.823-1.894-16.375h121.003
		c7.538,1.345,15.233,2.284,23.209,2.284c7.977,0,15.654-0.938,23.194-2.284h120.391
		C382.242,330.939,381.633,336.396,380.695,341.761z M383.025,292.646h-57.239c4.801-5.044,8.835-10.549,12.261-16.375h35.876
		c5.458,2.511,9.103,7.749,9.103,13.904V292.646z"/>
</g>
<g>
</g>
<g>
</g>
<g>
</g>
<g>
</g>
<g>
</g>
<g>
</g>
<g>
</g>
<g>
</g>
<g>
</g>
<g>
</g>
<g>
</g>
<g>
</g>
<g>
</g>
<g>
</g>
<g>
</g>
</svg>
